<svg xmlns:dc="http://purl.org/dc/elements/1.1/" xmlns:cc="http://creativecommons.org/ns#" xmlns:rdf="http://www.w3.org/1999/02/22-rdf-syntax-ns#" xmlns:svg="http://www.w3.org/2000/svg" xmlns="http://www.w3.org/2000/svg" xmlns:sodipodi="http://sodipodi.sourceforge.net/DTD/sodipodi-0.dtd" xmlns:inkscape="http://www.inkscape.org/namespaces/inkscape" viewBox="0 0 32 40.00000125" version="1.1" x="0px" y="0px"><g transform="translate(0,-1020.3622)"><path style="color:#000000;font-style:normal;font-variant:normal;font-weight:normal;font-stretch:normal;font-size:medium;line-height:normal;font-family:sans-serif;text-indent:0;text-align:start;text-decoration:none;text-decoration-line:none;text-decoration-style:solid;text-decoration-color:#000000;letter-spacing:normal;word-spacing:normal;text-transform:none;direction:ltr;block-progression:tb;writing-mode:lr-tb;baseline-shift:baseline;text-anchor:start;white-space:normal;clip-rule:nonzero;display:inline;overflow:visible;visibility:visible;opacity:1;isolation:auto;mix-blend-mode:normal;color-interpolation:sRGB;color-interpolation-filters:linearRGB;solid-color:#000000;solid-opacity:1;fill:#000000;fill-opacity:1;fill-rule:evenodd;stroke:none;stroke-width:1px;stroke-linecap:round;stroke-linejoin:round;stroke-miterlimit:4;stroke-dasharray:none;stroke-dashoffset:0;stroke-opacity:1;color-rendering:auto;image-rendering:auto;shape-rendering:auto;text-rendering:auto;enable-background:accumulate" d="m 16.675781,1021.5645 c -0.634265,0.168 -1.208078,0.6255 -1.689453,1.0332 -0.334998,0.2837 -0.448616,0.4079 -0.585937,0.5449 -0.149315,-0.067 -0.223777,-0.1103 -0.507813,-0.2149 -0.463973,-0.1707 -1.003465,-0.3579 -1.544922,-0.3183 -0.92969,0.068 -1.756641,0.5442 -2.4062498,1.0879 -0.3487379,0.2918 -0.6165547,0.7067 -0.8417968,1.0703 -0.1273353,0.2055 -0.1501291,0.2559 -0.21875,0.3808 -0.1390701,-0.014 -0.1860294,-0.026 -0.4140625,-0.035 -0.4172606,-0.017 -0.8979602,-0.032 -1.3417969,0.1347 -1.0401947,0.3906 -2.2423965,1.0769 -2.6796875,2.2872 -0.416529,1.1527 0.049048,2.3778 0.5644531,3.289 0.2060335,0.3644 0.521013,0.6082 0.796875,0.8223 0.275862,0.214 0.5195313,0.3691 0.5195313,0.3691 a 0.50005,0.50005 0 0 0 0.2578125,0.078 l 2.5957031,0.051 c -0.028752,0.2942 -0.062745,0.5266 -0.080078,1.1719 -0.025451,0.9476 -0.00992,2.057 0.3007812,2.8887 0.145144,0.3883 0.3849407,0.8889 0.9453124,1.1035 0.508182,0.1947 1.043275,0.093 1.455078,-0.2266 0.416219,-0.323 0.442868,-0.7716 0.494141,-1.0097 0.174257,-0.8091 0.18148,-1.9088 0.158203,-2.8399 -0.01579,-0.6315 -0.03847,-0.853 -0.05859,-1.1406 l 0.814453,0 c -0.0045,0.2152 -0.01163,0.2935 -0.0039,0.6426 0.01397,0.6313 0.03576,1.3306 0.232422,1.8652 0.07801,0.2123 0.234872,0.4348 0.412109,0.5352 0.177238,0.1004 0.246326,0.1003 0.359375,0.1562 0.46558,0.2305 1.05619,0.3163 1.589844,0.02 0.489678,-0.2724 0.596447,-0.7558 0.677734,-1.0566 0.141466,-0.5232 0.123617,-1.151 0.0957,-1.6894 -0.01171,-0.226 -0.01976,-0.2431 -0.03516,-0.4083 l 6.341797,0.025 a 0.50005,0.50005 0 0 0 0.335938,-0.1269 c 0,0 0.384941,-0.3445 0.800781,-0.8067 0.41584,-0.4622 0.882755,-1.0097 1.048828,-1.6484 0.242608,-0.9329 0.05442,-1.9474 -0.400391,-2.7578 -0.401922,-0.7161 -1.079229,-1.2977 -1.873046,-1.5566 -0.393601,-0.1284 -0.753805,-0.073 -1.070313,-0.029 -0.0247,0 -0.02105,0 -0.04492,0.01 -0.02463,-0.1566 -0.0198,-0.1769 -0.06445,-0.3887 -0.105244,-0.4992 -0.23924,-1.0725 -0.552734,-1.5215 -0.529647,-0.7585 -1.34013,-1.2451 -2.13086,-1.5508 -0.661735,-0.2557 -1.459109,-0.4483 -2.251953,-0.2382 z m 0.25586,0.9667 c 0.468356,-0.1241 1.079501,-0.011 1.634765,0.2032 0.66607,0.2575 1.307322,0.6693 1.671875,1.1914 0.124406,0.1781 0.299901,0.7074 0.394531,1.1562 0.09463,0.4489 0.136719,0.8242 0.136719,0.8242 a 0.50005,0.50005 0 0 0 0.617188,0.4278 c 0,0 0.210961,-0.052 0.470703,-0.088 0.259742,-0.036 0.5836,-0.023 0.625,-0.01 0.518782,0.1693 1.034716,0.6078 1.308594,1.0957 0.332189,0.592 0.468832,1.392 0.30664,2.0157 -0.06773,0.2604 -0.450611,0.815 -0.826172,1.2324 -0.309851,0.3444 -0.503317,0.5168 -0.595703,0.6015 l -6.68164,-0.027 a 0.50005,0.50005 0 0 0 -0.496094,0.5645 c 0,0 0.05039,0.401 0.07617,0.8984 0.02579,0.4974 0.0089,1.1038 -0.06445,1.375 -0.06971,0.258 -0.181143,0.4363 -0.197266,0.4453 -0.121946,0.068 -0.453336,0.059 -0.660156,-0.043 -0.198951,-0.098 -0.332057,-0.1422 -0.308594,-0.1289 0.02346,0.013 0.07529,0.1048 0.0332,-0.01 -0.08394,-0.2282 -0.158696,-0.9475 -0.171875,-1.543 -0.01318,-0.5956 0.0078,-1.0996 0.0078,-1.0996 a 0.50005,0.50005 0 0 0 -0.5,-0.5215 l -1.84375,0 a 0.50005,0.50005 0 0 0 -0.498047,0.543 c 0,0 0.05953,0.7231 0.08203,1.623 0.0225,0.9 -0.0019,1.9868 -0.134766,2.6035 -0.05873,0.2727 -0.134278,0.4324 -0.130859,0.4297 -0.104796,0.081 -0.379804,0.1233 -0.482422,0.084 -0.08983,-0.034 -0.268531,-0.2556 -0.367187,-0.5195 -0.2,-0.5354 -0.262406,-1.6136 -0.238282,-2.5117 0.02413,-0.8982 0.109375,-1.6309 0.109375,-1.6309 a 0.50005,0.50005 0 0 0 -0.4863278,-0.5586 l -2.9648437,-0.057 c -0.067105,-0.044 -0.1581035,-0.1008 -0.3378906,-0.2403 -0.235713,-0.1829 -0.493396,-0.4446 -0.5390625,-0.5254 a 0.50005,0.50005 0 0 0 0,-0 c -0.4433949,-0.784 -0.7413647,-1.7763 -0.4960938,-2.4551 0.266509,-0.7376 1.1931916,-1.354 2.0917969,-1.6914 0.1355633,-0.051 0.5832293,-0.087 0.9492187,-0.072 0.3659895,0.015 0.6640626,0.057 0.6640626,0.057 a 0.50005,0.50005 0 0 0 0.5117187,-0.2657 c 0,0 0.1442734,-0.2791 0.3476563,-0.6074 0.2033832,-0.3283 0.4884032,-0.7076 0.6347652,-0.8301 0.543391,-0.4547 1.214028,-0.8117 1.835938,-0.8574 0.193143,-0.014 0.713876,0.1078 1.126953,0.2598 0.413077,0.152 0.740234,0.3105 0.740234,0.3105 a 0.50005,0.50005 0 0 0 0.578125,-0.1035 c 0,0 0.329178,-0.3435 0.767578,-0.7148 0.438401,-0.3713 1.015994,-0.7532 1.298829,-0.8282 z"/><path style="color:#000000;font-style:normal;font-variant:normal;font-weight:normal;font-stretch:normal;font-size:medium;line-height:normal;font-family:sans-serif;text-indent:0;text-align:start;text-decoration:none;text-decoration-line:none;text-decoration-style:solid;text-decoration-color:#000000;letter-spacing:normal;word-spacing:normal;text-transform:none;direction:ltr;block-progression:tb;writing-mode:lr-tb;baseline-shift:baseline;text-anchor:start;white-space:normal;clip-rule:nonzero;display:inline;overflow:visible;visibility:visible;opacity:1;isolation:auto;mix-blend-mode:normal;color-interpolation:sRGB;color-interpolation-filters:linearRGB;solid-color:#000000;solid-opacity:1;fill:#000000;fill-opacity:1;fill-rule:evenodd;stroke:none;stroke-width:1px;stroke-linecap:butt;stroke-linejoin:miter;stroke-miterlimit:4;stroke-dasharray:none;stroke-dashoffset:0;stroke-opacity:1;color-rendering:auto;image-rendering:auto;shape-rendering:auto;text-rendering:auto;enable-background:accumulate" d="m 6.1191406,1031.666 c 0,0 -0.1301029,3.0679 -0.1640625,6.7715 -0.033959,3.7036 0.02291,8.0262 0.4199219,10.6367 0.070439,0.4633 0.2789397,0.9263 0.59375,1.3145 0.3148103,0.3881 0.7616931,0.7221 1.3261719,0.7343 4.3494921,0.094 8.5407581,0.087 12.8828121,0.125 0.60043,0.01 1.083692,-0.3486 1.421875,-0.7695 0.338543,-0.4213 0.562423,-0.9327 0.582032,-1.4609 0.203164,-5.4796 0.125,-17.2715 0.125,-17.2715 l -1,0.01 c 0,0 0.07584,11.8117 -0.125,17.2285 -0.0089,0.2395 -0.151024,0.6069 -0.363282,0.8711 -0.212257,0.2641 -0.463876,0.3986 -0.630859,0.3964 l -0.002,0 c -4.348746,-0.038 -8.532679,-0.031 -12.8671876,-0.125 -0.1585212,-0 -0.376251,-0.1235 -0.5722656,-0.3652 -0.1960147,-0.2417 -0.3445517,-0.5823 -0.3828126,-0.834 -0.3739881,-2.4591 -0.4419935,-6.7933 -0.4082031,-10.4785 0.033791,-3.6852 0.1640625,-6.7383 0.1640625,-6.7383 l -1,-0.041 z"/><path style="color:#000000;font-style:normal;font-variant:normal;font-weight:normal;font-stretch:normal;font-size:medium;line-height:normal;font-family:sans-serif;text-indent:0;text-align:start;text-decoration:none;text-decoration-line:none;text-decoration-style:solid;text-decoration-color:#000000;letter-spacing:normal;word-spacing:normal;text-transform:none;direction:ltr;block-progression:tb;writing-mode:lr-tb;baseline-shift:baseline;text-anchor:start;white-space:normal;clip-rule:nonzero;display:inline;overflow:visible;visibility:visible;opacity:1;isolation:auto;mix-blend-mode:normal;color-interpolation:sRGB;color-interpolation-filters:linearRGB;solid-color:#000000;solid-opacity:1;fill:#000000;fill-opacity:1;fill-rule:evenodd;stroke:none;stroke-width:1px;stroke-linecap:butt;stroke-linejoin:miter;stroke-miterlimit:4;stroke-dasharray:none;stroke-dashoffset:0;stroke-opacity:1;color-rendering:auto;image-rendering:auto;shape-rendering:auto;text-rendering:auto;enable-background:accumulate" d="m 24.091797,1033.9707 c -0.624236,-0.012 -1.136719,0.029 -1.136719,0.029 l 0.07813,0.998 c 0,0 0.469249,-0.038 1.039063,-0.027 0.569814,0.011 1.251249,0.1009 1.517578,0.2285 0.58153,0.2786 0.920451,0.6301 0.972656,1.1778 0.272822,2.859 0.152771,5.7058 -0.128906,8.3828 -0.06024,0.5761 -0.250122,1.1671 -0.558594,1.4062 -0.241433,0.1871 -1.004224,0.3595 -1.671875,0.3985 -0.667651,0.039 -1.236328,-0 -1.236328,-0 l -0.07031,0.998 c 0,0 0.624486,0.045 1.365235,0 0.740749,-0.043 1.601595,-0.1212 2.226562,-0.6055 0.694728,-0.5385 0.869644,-1.4074 0.941407,-2.0937 0.286322,-2.7211 0.408331,-5.6333 0.126953,-8.5821 -0.09039,-0.9483 -0.759334,-1.6116 -1.533203,-1.9824 -0.582471,-0.2791 -1.307405,-0.3159 -1.931641,-0.3281 z"/><path style="color:#000000;font-style:normal;font-variant:normal;font-weight:normal;font-stretch:normal;font-size:medium;line-height:normal;font-family:sans-serif;text-indent:0;text-align:start;text-decoration:none;text-decoration-line:none;text-decoration-style:solid;text-decoration-color:#000000;letter-spacing:normal;word-spacing:normal;text-transform:none;direction:ltr;block-progression:tb;writing-mode:lr-tb;baseline-shift:baseline;text-anchor:start;white-space:normal;clip-rule:nonzero;display:inline;overflow:visible;visibility:visible;opacity:1;isolation:auto;mix-blend-mode:normal;color-interpolation:sRGB;color-interpolation-filters:linearRGB;solid-color:#000000;solid-opacity:1;fill:#000000;fill-opacity:1;fill-rule:evenodd;stroke:none;stroke-width:1px;stroke-linecap:round;stroke-linejoin:round;stroke-miterlimit:4;stroke-dasharray:none;stroke-dashoffset:0;stroke-opacity:1;color-rendering:auto;image-rendering:auto;shape-rendering:auto;text-rendering:auto;enable-background:accumulate" d="m 18.529297,1034.5547 a 0.50005,0.50005 0 0 0 -0.472656,0.5254 l 0.4375,11.625 a 0.50034398,0.50034398 0 1 0 1,-0.037 l -0.4375,-11.625 a 0.50005,0.50005 0 0 0 -0.527344,-0.4883 z"/><path style="color:#000000;font-style:normal;font-variant:normal;font-weight:normal;font-stretch:normal;font-size:medium;line-height:normal;font-family:sans-serif;text-indent:0;text-align:start;text-decoration:none;text-decoration-line:none;text-decoration-style:solid;text-decoration-color:#000000;letter-spacing:normal;word-spacing:normal;text-transform:none;direction:ltr;block-progression:tb;writing-mode:lr-tb;baseline-shift:baseline;text-anchor:start;white-space:normal;clip-rule:nonzero;display:inline;overflow:visible;visibility:visible;opacity:1;isolation:auto;mix-blend-mode:normal;color-interpolation:sRGB;color-interpolation-filters:linearRGB;solid-color:#000000;solid-opacity:1;fill:#000000;fill-opacity:1;fill-rule:evenodd;stroke:none;stroke-width:1px;stroke-linecap:round;stroke-linejoin:round;stroke-miterlimit:4;stroke-dasharray:none;stroke-dashoffset:0;stroke-opacity:1;color-rendering:auto;image-rendering:auto;shape-rendering:auto;text-rendering:auto;enable-background:accumulate" d="m 14.615234,1037.2422 a 0.50005,0.50005 0 0 0 -0.496093,0.5039 l -0.0625,9.1875 a 0.50005,0.50005 0 1 0 1,0.01 l 0.0625,-9.1875 a 0.50005,0.50005 0 0 0 -0.503907,-0.5098 z"/><path style="color:#000000;font-style:normal;font-variant:normal;font-weight:normal;font-stretch:normal;font-size:medium;line-height:normal;font-family:sans-serif;text-indent:0;text-align:start;text-decoration:none;text-decoration-line:none;text-decoration-style:solid;text-decoration-color:#000000;letter-spacing:normal;word-spacing:normal;text-transform:none;direction:ltr;block-progression:tb;writing-mode:lr-tb;baseline-shift:baseline;text-anchor:start;white-space:normal;clip-rule:nonzero;display:inline;overflow:visible;visibility:visible;opacity:1;isolation:auto;mix-blend-mode:normal;color-interpolation:sRGB;color-interpolation-filters:linearRGB;solid-color:#000000;solid-opacity:1;fill:#000000;fill-opacity:1;fill-rule:evenodd;stroke:none;stroke-width:1px;stroke-linecap:round;stroke-linejoin:round;stroke-miterlimit:4;stroke-dasharray:none;stroke-dashoffset:0;stroke-opacity:1;color-rendering:auto;image-rendering:auto;shape-rendering:auto;text-rendering:auto;enable-background:accumulate" d="m 10.412109,1039.1172 a 0.50005,0.50005 0 0 0 -0.4804684,0.5195 l 0.1875004,7.375 a 0.50016126,0.50016126 0 1 0 1,-0.025 l -0.1875,-7.375 a 0.50005,0.50005 0 0 0 -0.519532,-0.4941 z"/><path style="color:#000000;font-style:normal;font-variant:normal;font-weight:normal;font-stretch:normal;font-size:medium;line-height:normal;font-family:sans-serif;text-indent:0;text-align:start;text-decoration:none;text-decoration-line:none;text-decoration-style:solid;text-decoration-color:#000000;letter-spacing:normal;word-spacing:normal;text-transform:none;direction:ltr;block-progression:tb;writing-mode:lr-tb;baseline-shift:baseline;text-anchor:start;white-space:normal;clip-rule:nonzero;display:inline;overflow:visible;visibility:visible;opacity:1;isolation:auto;mix-blend-mode:normal;color-interpolation:sRGB;color-interpolation-filters:linearRGB;solid-color:#000000;solid-opacity:1;fill:#000000;fill-opacity:1;fill-rule:evenodd;stroke:none;stroke-width:0.5;stroke-linecap:round;stroke-linejoin:round;stroke-miterlimit:4;stroke-dasharray:none;stroke-dashoffset:0;stroke-opacity:1;color-rendering:auto;image-rendering:auto;shape-rendering:auto;text-rendering:auto;enable-background:accumulate" d="m 7.7050781,1026.6152 a 0.250025,0.250025 0 0 0 -0.1308593,0.051 l -2.5410157,1.877 a 0.250025,0.250025 0 1 0 0.296875,0.4023 l 2.5410157,-1.8769 a 0.250025,0.250025 0 0 0 -0.1660157,-0.4532 z"/><path style="color:#000000;font-style:normal;font-variant:normal;font-weight:normal;font-stretch:normal;font-size:medium;line-height:normal;font-family:sans-serif;text-indent:0;text-align:start;text-decoration:none;text-decoration-line:none;text-decoration-style:solid;text-decoration-color:#000000;letter-spacing:normal;word-spacing:normal;text-transform:none;direction:ltr;block-progression:tb;writing-mode:lr-tb;baseline-shift:baseline;text-anchor:start;white-space:normal;clip-rule:nonzero;display:inline;overflow:visible;visibility:visible;opacity:1;isolation:auto;mix-blend-mode:normal;color-interpolation:sRGB;color-interpolation-filters:linearRGB;solid-color:#000000;solid-opacity:1;fill:#000000;fill-opacity:1;fill-rule:evenodd;stroke:none;stroke-width:0.5;stroke-linecap:round;stroke-linejoin:round;stroke-miterlimit:4;stroke-dasharray:none;stroke-dashoffset:0;stroke-opacity:1;color-rendering:auto;image-rendering:auto;shape-rendering:auto;text-rendering:auto;enable-background:accumulate" d="m 8.3984375,1027.2324 a 0.250025,0.250025 0 0 0 -0.1523437,0.061 l -3.0039063,2.5195 a 0.250025,0.250025 0 1 0 0.3203125,0.3828 l 3.0058594,-2.5176 a 0.250025,0.250025 0 0 0 -0.1699219,-0.4453 z"/><path style="color:#000000;font-style:normal;font-variant:normal;font-weight:normal;font-stretch:normal;font-size:medium;line-height:normal;font-family:sans-serif;text-indent:0;text-align:start;text-decoration:none;text-decoration-line:none;text-decoration-style:solid;text-decoration-color:#000000;letter-spacing:normal;word-spacing:normal;text-transform:none;direction:ltr;block-progression:tb;writing-mode:lr-tb;baseline-shift:baseline;text-anchor:start;white-space:normal;clip-rule:nonzero;display:inline;overflow:visible;visibility:visible;opacity:1;isolation:auto;mix-blend-mode:normal;color-interpolation:sRGB;color-interpolation-filters:linearRGB;solid-color:#000000;solid-opacity:1;fill:#000000;fill-opacity:1;fill-rule:evenodd;stroke:none;stroke-width:0.5;stroke-linecap:round;stroke-linejoin:round;stroke-miterlimit:4;stroke-dasharray:none;stroke-dashoffset:0;stroke-opacity:1;color-rendering:auto;image-rendering:auto;shape-rendering:auto;text-rendering:auto;enable-background:accumulate" d="m 9.0585938,1027.873 a 0.250025,0.250025 0 0 0 -0.1757813,0.064 l -2.9824219,2.6309 a 0.250025,0.250025 0 1 0 0.3300782,0.375 l 2.9824218,-2.6289 a 0.250025,0.250025 0 0 0 -0.1542968,-0.4415 z"/><path style="color:#000000;font-style:normal;font-variant:normal;font-weight:normal;font-stretch:normal;font-size:medium;line-height:normal;font-family:sans-serif;text-indent:0;text-align:start;text-decoration:none;text-decoration-line:none;text-decoration-style:solid;text-decoration-color:#000000;letter-spacing:normal;word-spacing:normal;text-transform:none;direction:ltr;block-progression:tb;writing-mode:lr-tb;baseline-shift:baseline;text-anchor:start;white-space:normal;clip-rule:nonzero;display:inline;overflow:visible;visibility:visible;opacity:1;isolation:auto;mix-blend-mode:normal;color-interpolation:sRGB;color-interpolation-filters:linearRGB;solid-color:#000000;solid-opacity:1;fill:#000000;fill-opacity:1;fill-rule:evenodd;stroke:none;stroke-width:0.5;stroke-linecap:round;stroke-linejoin:round;stroke-miterlimit:4;stroke-dasharray:none;stroke-dashoffset:0;stroke-opacity:1;color-rendering:auto;image-rendering:auto;shape-rendering:auto;text-rendering:auto;enable-background:accumulate" d="m 9.7949219,1028.8027 a 0.250025,0.250025 0 0 0 -0.1289063,0.057 l -2.8730468,2.2968 a 0.25015132,0.25015132 0 0 0 0.3125,0.3907 l 2.8710937,-2.2969 a 0.250025,0.250025 0 0 0 -0.1816406,-0.4473 z"/><path style="color:#000000;font-style:normal;font-variant:normal;font-weight:normal;font-stretch:normal;font-size:medium;line-height:normal;font-family:sans-serif;text-indent:0;text-align:start;text-decoration:none;text-decoration-line:none;text-decoration-style:solid;text-decoration-color:#000000;letter-spacing:normal;word-spacing:normal;text-transform:none;direction:ltr;block-progression:tb;writing-mode:lr-tb;baseline-shift:baseline;text-anchor:start;white-space:normal;clip-rule:nonzero;display:inline;overflow:visible;visibility:visible;opacity:1;isolation:auto;mix-blend-mode:normal;color-interpolation:sRGB;color-interpolation-filters:linearRGB;solid-color:#000000;solid-opacity:1;fill:#000000;fill-opacity:1;fill-rule:evenodd;stroke:none;stroke-width:0.5;stroke-linecap:round;stroke-linejoin:round;stroke-miterlimit:4;stroke-dasharray:none;stroke-dashoffset:0;stroke-opacity:1;color-rendering:auto;image-rendering:auto;shape-rendering:auto;text-rendering:auto;enable-background:accumulate" d="m 10.384766,1029.7305 a 0.250025,0.250025 0 0 0 -0.152344,0.062 l -1.6347658,1.414 a 0.250025,0.250025 0 1 0 0.3261719,0.3789 l 1.6347659,-1.414 a 0.250025,0.250025 0 0 0 -0.173828,-0.4414 z"/><path style="color:#000000;font-style:normal;font-variant:normal;font-weight:normal;font-stretch:normal;font-size:medium;line-height:normal;font-family:sans-serif;text-indent:0;text-align:start;text-decoration:none;text-decoration-line:none;text-decoration-style:solid;text-decoration-color:#000000;letter-spacing:normal;word-spacing:normal;text-transform:none;direction:ltr;block-progression:tb;writing-mode:lr-tb;baseline-shift:baseline;text-anchor:start;white-space:normal;clip-rule:nonzero;display:inline;overflow:visible;visibility:visible;opacity:1;isolation:auto;mix-blend-mode:normal;color-interpolation:sRGB;color-interpolation-filters:linearRGB;solid-color:#000000;solid-opacity:1;fill:#000000;fill-opacity:1;fill-rule:evenodd;stroke:none;stroke-width:0.5;stroke-linecap:butt;stroke-linejoin:miter;stroke-miterlimit:4;stroke-dasharray:none;stroke-dashoffset:0;stroke-opacity:1;color-rendering:auto;image-rendering:auto;shape-rendering:auto;text-rendering:auto;enable-background:accumulate" d="m 8.0761719,1033.2559 -1.9003907,2.4746 0.3964844,0.3047 1.9003906,-2.4766 -0.3964843,-0.3027 z"/><path style="color:#000000;font-style:normal;font-variant:normal;font-weight:normal;font-stretch:normal;font-size:medium;line-height:normal;font-family:sans-serif;text-indent:0;text-align:start;text-decoration:none;text-decoration-line:none;text-decoration-style:solid;text-decoration-color:#000000;letter-spacing:normal;word-spacing:normal;text-transform:none;direction:ltr;block-progression:tb;writing-mode:lr-tb;baseline-shift:baseline;text-anchor:start;white-space:normal;clip-rule:nonzero;display:inline;overflow:visible;visibility:visible;opacity:1;isolation:auto;mix-blend-mode:normal;color-interpolation:sRGB;color-interpolation-filters:linearRGB;solid-color:#000000;solid-opacity:1;fill:#000000;fill-opacity:1;fill-rule:evenodd;stroke:none;stroke-width:0.5;stroke-linecap:round;stroke-linejoin:round;stroke-miterlimit:4;stroke-dasharray:none;stroke-dashoffset:0;stroke-opacity:1;color-rendering:auto;image-rendering:auto;shape-rendering:auto;text-rendering:auto;enable-background:accumulate" d="m 8.6269531,1034.707 a 0.250025,0.250025 0 0 0 -0.1835937,0.1035 l -2.0214844,2.7286 a 0.25058031,0.25058031 0 0 0 0.4023438,0.2988 l 2.0195312,-2.7285 a 0.250025,0.250025 0 0 0 -0.2167969,-0.4024 z"/><path style="color:#000000;font-style:normal;font-variant:normal;font-weight:normal;font-stretch:normal;font-size:medium;line-height:normal;font-family:sans-serif;text-indent:0;text-align:start;text-decoration:none;text-decoration-line:none;text-decoration-style:solid;text-decoration-color:#000000;letter-spacing:normal;word-spacing:normal;text-transform:none;direction:ltr;block-progression:tb;writing-mode:lr-tb;baseline-shift:baseline;text-anchor:start;white-space:normal;clip-rule:nonzero;display:inline;overflow:visible;visibility:visible;opacity:1;isolation:auto;mix-blend-mode:normal;color-interpolation:sRGB;color-interpolation-filters:linearRGB;solid-color:#000000;solid-opacity:1;fill:#000000;fill-opacity:1;fill-rule:evenodd;stroke:none;stroke-width:0.5;stroke-linecap:round;stroke-linejoin:round;stroke-miterlimit:4;stroke-dasharray:none;stroke-dashoffset:0;stroke-opacity:1;color-rendering:auto;image-rendering:auto;shape-rendering:auto;text-rendering:auto;enable-background:accumulate" d="m 9.0019531,1036.2695 a 0.250025,0.250025 0 0 0 -0.2050781,0.1114 l -2.6074219,3.8007 a 0.250025,0.250025 0 1 0 0.4121094,0.2832 l 2.6074219,-3.8007 a 0.250025,0.250025 0 0 0 -0.2070313,-0.3946 z"/><path style="color:#000000;font-style:normal;font-variant:normal;font-weight:normal;font-stretch:normal;font-size:medium;line-height:normal;font-family:sans-serif;text-indent:0;text-align:start;text-decoration:none;text-decoration-line:none;text-decoration-style:solid;text-decoration-color:#000000;letter-spacing:normal;word-spacing:normal;text-transform:none;direction:ltr;block-progression:tb;writing-mode:lr-tb;baseline-shift:baseline;text-anchor:start;white-space:normal;clip-rule:nonzero;display:inline;overflow:visible;visibility:visible;opacity:1;isolation:auto;mix-blend-mode:normal;color-interpolation:sRGB;color-interpolation-filters:linearRGB;solid-color:#000000;solid-opacity:1;fill:#000000;fill-opacity:1;fill-rule:evenodd;stroke:none;stroke-width:0.5;stroke-linecap:round;stroke-linejoin:round;stroke-miterlimit:4;stroke-dasharray:none;stroke-dashoffset:0;stroke-opacity:1;color-rendering:auto;image-rendering:auto;shape-rendering:auto;text-rendering:auto;enable-background:accumulate" d="m 9.1367188,1038.4141 a 0.250025,0.250025 0 0 0 -0.1816407,0.1074 l -2.6074219,3.668 a 0.250025,0.250025 0 1 0 0.40625,0.289 l 2.6074219,-3.668 a 0.250025,0.250025 0 0 0 -0.2246093,-0.3964 z"/><path style="color:#000000;font-style:normal;font-variant:normal;font-weight:normal;font-stretch:normal;font-size:medium;line-height:normal;font-family:sans-serif;text-indent:0;text-align:start;text-decoration:none;text-decoration-line:none;text-decoration-style:solid;text-decoration-color:#000000;letter-spacing:normal;word-spacing:normal;text-transform:none;direction:ltr;block-progression:tb;writing-mode:lr-tb;baseline-shift:baseline;text-anchor:start;white-space:normal;clip-rule:nonzero;display:inline;overflow:visible;visibility:visible;opacity:1;isolation:auto;mix-blend-mode:normal;color-interpolation:sRGB;color-interpolation-filters:linearRGB;solid-color:#000000;solid-opacity:1;fill:#000000;fill-opacity:1;fill-rule:evenodd;stroke:none;stroke-width:0.5;stroke-linecap:round;stroke-linejoin:round;stroke-miterlimit:4;stroke-dasharray:none;stroke-dashoffset:0;stroke-opacity:1;color-rendering:auto;image-rendering:auto;shape-rendering:auto;text-rendering:auto;enable-background:accumulate" d="m 9.4589844,1040.4023 a 0.250025,0.250025 0 0 0 -0.1855469,0.096 l -3.0058594,3.7579 a 0.25012204,0.25012204 0 1 0 0.390625,0.3125 l 3.0039063,-3.7579 a 0.250025,0.250025 0 0 0 -0.203125,-0.4082 z"/><path style="color:#000000;font-style:normal;font-variant:normal;font-weight:normal;font-stretch:normal;font-size:medium;line-height:normal;font-family:sans-serif;text-indent:0;text-align:start;text-decoration:none;text-decoration-line:none;text-decoration-style:solid;text-decoration-color:#000000;letter-spacing:normal;word-spacing:normal;text-transform:none;direction:ltr;block-progression:tb;writing-mode:lr-tb;baseline-shift:baseline;text-anchor:start;white-space:normal;clip-rule:nonzero;display:inline;overflow:visible;visibility:visible;opacity:1;isolation:auto;mix-blend-mode:normal;color-interpolation:sRGB;color-interpolation-filters:linearRGB;solid-color:#000000;solid-opacity:1;fill:#000000;fill-opacity:1;fill-rule:evenodd;stroke:none;stroke-width:0.5;stroke-linecap:round;stroke-linejoin:round;stroke-miterlimit:4;stroke-dasharray:none;stroke-dashoffset:0;stroke-opacity:1;color-rendering:auto;image-rendering:auto;shape-rendering:auto;text-rendering:auto;enable-background:accumulate" d="m 9.0917969,1042.9219 a 0.250025,0.250025 0 0 0 -0.1816407,0.1074 l -2.4296874,3.4023 a 0.250025,0.250025 0 1 0 0.40625,0.2911 l 2.4316406,-3.4024 a 0.250025,0.250025 0 0 0 -0.2265625,-0.3984 z"/><path style="color:#000000;font-style:normal;font-variant:normal;font-weight:normal;font-stretch:normal;font-size:medium;line-height:normal;font-family:sans-serif;text-indent:0;text-align:start;text-decoration:none;text-decoration-line:none;text-decoration-style:solid;text-decoration-color:#000000;letter-spacing:normal;word-spacing:normal;text-transform:none;direction:ltr;block-progression:tb;writing-mode:lr-tb;baseline-shift:baseline;text-anchor:start;white-space:normal;clip-rule:nonzero;display:inline;overflow:visible;visibility:visible;opacity:1;isolation:auto;mix-blend-mode:normal;color-interpolation:sRGB;color-interpolation-filters:linearRGB;solid-color:#000000;solid-opacity:1;fill:#000000;fill-opacity:1;fill-rule:evenodd;stroke:none;stroke-width:0.5;stroke-linecap:round;stroke-linejoin:round;stroke-miterlimit:4;stroke-dasharray:none;stroke-dashoffset:0;stroke-opacity:1;color-rendering:auto;image-rendering:auto;shape-rendering:auto;text-rendering:auto;enable-background:accumulate" d="m 8.9394531,1045.2188 a 0.250025,0.250025 0 0 0 -0.2070312,0.1093 l -2.0761719,2.961 a 0.250025,0.250025 0 1 0 0.4082031,0.2871 l 2.078125,-2.961 a 0.250025,0.250025 0 0 0 -0.203125,-0.3964 z"/><path style="color:#000000;font-style:normal;font-variant:normal;font-weight:normal;font-stretch:normal;font-size:medium;line-height:normal;font-family:sans-serif;text-indent:0;text-align:start;text-decoration:none;text-decoration-line:none;text-decoration-style:solid;text-decoration-color:#000000;letter-spacing:normal;word-spacing:normal;text-transform:none;direction:ltr;block-progression:tb;writing-mode:lr-tb;baseline-shift:baseline;text-anchor:start;white-space:normal;clip-rule:nonzero;display:inline;overflow:visible;visibility:visible;opacity:1;isolation:auto;mix-blend-mode:normal;color-interpolation:sRGB;color-interpolation-filters:linearRGB;solid-color:#000000;solid-opacity:1;fill:#000000;fill-opacity:1;fill-rule:evenodd;stroke:none;stroke-width:0.5;stroke-linecap:round;stroke-linejoin:round;stroke-miterlimit:4;stroke-dasharray:none;stroke-dashoffset:0;stroke-opacity:1;color-rendering:auto;image-rendering:auto;shape-rendering:auto;text-rendering:auto;enable-background:accumulate" d="m 9.3007812,1047.252 a 0.250025,0.250025 0 0 0 -0.2089843,0.1035 l -1.9003907,2.5175 a 0.250025,0.250025 0 1 0 0.3984376,0.3008 l 1.9003906,-2.5176 a 0.250025,0.250025 0 0 0 -0.1894532,-0.4042 z"/></g></svg>